HIERARCHY
ROOT Hips
{
  OFFSET -2.50873 97.2745 1.66981
  CHANNELS 6 Xposition Yposition Zposition Zrotation Xrotation Yrotation
  JOINT Spine
  {
    OFFSET 0 10.1816 0.1315
    CHANNELS 6 Xposition Yposition Zposition Zrotation Xrotation Yrotation
    JOINT Spine1
    {
      OFFSET 0 10.0835 -1.0008
      CHANNELS 6 Xposition Yposition Zposition Zrotation Xrotation Yrotation
      JOINT Spine2
      {
        OFFSET 0 9.1 -1.3734
        CHANNELS 6 Xposition Yposition Zposition Zrotation Xrotation Yrotation
        JOINT Neck
        {
          OFFSET 0 16.6717 -2.5162
          CHANNELS 6 Xposition Yposition Zposition Zrotation Xrotation Yrotation
          JOINT Head
          {
            OFFSET 0 9.6179 1.685
            CHANNELS 6 Xposition Yposition Zposition Zrotation Xrotation Yrotation
            JOINT HeadTop_End
            {
              OFFSET 0 17.8152 2.585
              CHANNELS 6 Xposition Yposition Zposition Zrotation Xrotation Yrotation
              End Site
              {
                OFFSET 0 0 0
              }
            }
            JOINT LeftEye
            {
              OFFSET 3.0676 6.4095 9.2836
              CHANNELS 6 Xposition Yposition Zposition Zrotation Xrotation Yrotation
              End Site
              {
                OFFSET 0 0 0
              }
            }
            JOINT RightEye
            {
              OFFSET -3.0676 6.4095 9.2835
              CHANNELS 6 Xposition Yposition Zposition Zrotation Xrotation Yrotation
              End Site
              {
                OFFSET 0 0 0
              }
            }
          }
        }
        JOINT LeftShoulder
        {
          OFFSET 4.5704 10.946 -2.628
          CHANNELS 6 Xposition Yposition Zposition Zrotation Xrotation Yrotation
          JOINT LeftArm
          {
            OFFSET 10.5924 -0.5246 -2.2321
            CHANNELS 6 Xposition Yposition Zposition Zrotation Xrotation Yrotation
            JOINT LeftForeArm
            {
              OFFSET 27.8415 -0.0001 0
              CHANNELS 6 Xposition Yposition Zposition Zrotation Xrotation Yrotation
              JOINT LeftHand
              {
                OFFSET 28.3288 0 0
                CHANNELS 6 Xposition Yposition Zposition Zrotation Xrotation Yrotation
                JOINT LeftHandThumb1
                {
                  OFFSET 2.4661 -1.575 2.6824
                  CHANNELS 6 Xposition Yposition Zposition Zrotation Xrotation Yrotation
                  JOINT LeftHandThumb2
                  {
                    OFFSET 3.2298 -1.8647 1.8647
                    CHANNELS 6 Xposition Yposition Zposition Zrotation Xrotation Yrotation
                    JOINT LeftHandThumb3
                    {
                      OFFSET 2.6526 -1.5315 1.5315
                      CHANNELS 6 Xposition Yposition Zposition Zrotation Xrotation Yrotation
                      End Site
                      {
                        OFFSET 1.9546 -1.1285 1.1285
                      }
                    }
                  }
                }
                JOINT LeftHandIndex1
                {
                  OFFSET 9.1093 -0.5171 2.2601
                  CHANNELS 6 Xposition Yposition Zposition Zrotation Xrotation Yrotation
                  JOINT LeftHandIndex2
                  {
                    OFFSET 3.6764 0 0
                    CHANNELS 6 Xposition Yposition Zposition Zrotation Xrotation Yrotation
                    JOINT LeftHandIndex3
                    {
                      OFFSET 2.8831 0 0
                      CHANNELS 6 Xposition Yposition Zposition Zrotation Xrotation Yrotation
                      End Site
                      {
                        OFFSET 2.3927 0 0
                      }
                    }
                  }
                }
                JOINT LeftHandMiddle1
                {
                  OFFSET 9.5334 0 0
                  CHANNELS 6 Xposition Yposition Zposition Zrotation Xrotation Yrotation
                  JOINT LeftHandMiddle2
                  {
                    OFFSET 3.6982 0 0
                    CHANNELS 6 Xposition Yposition Zposition Zrotation Xrotation Yrotation
                    JOINT LeftHandMiddle3
                    {
                      OFFSET 2.9509 0 0
                      CHANNELS 6 Xposition Yposition Zposition Zrotation Xrotation Yrotation
                      End Site
                      {
                        OFFSET 2.8339 0 0
                      }
                    }
                  }
                }
                JOINT LeftHandRing1
                {
                  OFFSET 9.1045 -0.0439 -1.8651
                  CHANNELS 6 Xposition Yposition Zposition Zrotation Xrotation Yrotation
                  JOINT LeftHandRing2
                  {
                    OFFSET 3.154 0 0
                    CHANNELS 6 Xposition Yposition Zposition Zrotation Xrotation Yrotation
                    JOINT LeftHandRing3
                    {
                      OFFSET 2.9377 0 0
                      CHANNELS 6 Xposition Yposition Zposition Zrotation Xrotation Yrotation
                      End Site
                      {
                        OFFSET 2.6475 0 0
                      }
                    }
                  }
                }
                JOINT LeftHandPinky1
                {
                  OFFSET 8.0778 -0.4887 -3.8061
                  CHANNELS 6 Xposition Yposition Zposition Zrotation Xrotation Yrotation
                  JOINT LeftHandPinky2
                  {
                    OFFSET 3.6 0 0
                    CHANNELS 6 Xposition Yposition Zposition Zrotation Xrotation Yrotation
                    JOINT LeftHandPinky3
                    {
                      OFFSET 2.1142 0 0
                      CHANNELS 6 Xposition Yposition Zposition Zrotation Xrotation Yrotation
                      End Site
                      {
                        OFFSET 1.9757 0 0
                      }
                    }
                  }
                }
              }
            }
          }
        }
        JOINT RightShoulder
        {
          OFFSET -4.57 10.9462 -2.628
          CHANNELS 6 Xposition Yposition Zposition Zrotation Xrotation Yrotation
          JOINT RightArm
          {
            OFFSET -10.5928 -0.5248 -2.2321
            CHANNELS 6 Xposition Yposition Zposition Zrotation Xrotation Yrotation
            JOINT RightForeArm
            {
              OFFSET -27.8415 0 0
              CHANNELS 6 Xposition Yposition Zposition Zrotation Xrotation Yrotation
              JOINT RightHand
              {
                OFFSET -28.3288 0 0.0001
                CHANNELS 6 Xposition Yposition Zposition Zrotation Xrotation Yrotation
                JOINT RightHandPinky1
                {
                  OFFSET -8.0767 -0.4885 -3.806
                  CHANNELS 6 Xposition Yposition Zposition Zrotation Xrotation Yrotation
                  JOINT RightHandPinky2
                  {
                    OFFSET -3.6 0 0.0001
                    CHANNELS 6 Xposition Yposition Zposition Zrotation Xrotation Yrotation
                    JOINT RightHandPinky3
                    {
                      OFFSET -2.1142 0 0
                      CHANNELS 6 Xposition Yposition Zposition Zrotation Xrotation Yrotation
                      End Site
                      {
                        OFFSET -1.9757 0 0
                      }
                    }
                  }
                }
                JOINT RightHandRing1
                {
                  OFFSET -9.1036 -0.0439 -1.8651
                  CHANNELS 6 Xposition Yposition Zposition Zrotation Xrotation Yrotation
                  JOINT RightHandRing2
                  {
                    OFFSET -3.154 0 0
                    CHANNELS 6 Xposition Yposition Zposition Zrotation Xrotation Yrotation
                    JOINT RightHandRing3
                    {
                      OFFSET -2.9377 0 0
                      CHANNELS 6 Xposition Yposition Zposition Zrotation Xrotation Yrotation
                      End Site
                      {
                        OFFSET -2.6475 0 0
                      }
                    }
                  }
                }
                JOINT RightHandMiddle1
                {
                  OFFSET -9.5325 0 0
                  CHANNELS 6 Xposition Yposition Zposition Zrotation Xrotation Yrotation
                  JOINT RightHandMiddle2
                  {
                    OFFSET -3.6982 0 0
                    CHANNELS 6 Xposition Yposition Zposition Zrotation Xrotation Yrotation
                    JOINT RightHandMiddle3
                    {
                      OFFSET -2.9509 0 0
                      CHANNELS 6 Xposition Yposition Zposition Zrotation Xrotation Yrotation
                      End Site
                      {
                        OFFSET -2.8339 0 0.0001
                      }
                    }
                  }
                }
                JOINT RightHandIndex1
                {
                  OFFSET -9.1083 -0.5168 2.2601
                  CHANNELS 6 Xposition Yposition Zposition Zrotation Xrotation Yrotation
                  JOINT RightHandIndex2
                  {
                    OFFSET -3.6764 0 0
                    CHANNELS 6 Xposition Yposition Zposition Zrotation Xrotation Yrotation
                    JOINT RightHandIndex3
                    {
                      OFFSET -2.8831 0 0
                      CHANNELS 6 Xposition Yposition Zposition Zrotation Xrotation Yrotation
                      End Site
                      {
                        OFFSET -2.3927 0 0
                      }
                    }
                  }
                }
                JOINT RightHandThumb1
                {
                  OFFSET -2.4648 -1.5727 2.6826
                  CHANNELS 6 Xposition Yposition Zposition Zrotation Xrotation Yrotation
                  JOINT RightHandThumb2
                  {
                    OFFSET -3.2298 -1.8647 1.8647
                    CHANNELS 6 Xposition Yposition Zposition Zrotation Xrotation Yrotation
                    JOINT RightHandThumb3
                    {
                      OFFSET -2.6526 -1.5314 1.5314
                      CHANNELS 6 Xposition Yposition Zposition Zrotation Xrotation Yrotation
                      End Site
                      {
                        OFFSET -1.9546 -1.1285 1.1285
                      }
                    }
                  }
                }
              }
            }
          }
        }
      }
    }
  }
  JOINT LeftUpLeg
  {
    OFFSET 8.2078 -6.7517 -1.5996
    CHANNELS 6 Xposition Yposition Zposition Zrotation Xrotation Yrotation
    JOINT LeftLeg
    {
      OFFSET 0 -44.3705 0.2846
      CHANNELS 6 Xposition Yposition Zposition Zrotation Xrotation Yrotation
      JOINT LeftFoot
      {
        OFFSET 0 -44.4279 -2.9822
        CHANNELS 6 Xposition Yposition Zposition Zrotation Xrotation Yrotation
        JOINT LeftToeBase
        {
          OFFSET 0 -8.7287 10.7106
          CHANNELS 6 Xposition Yposition Zposition Zrotation Xrotation Yrotation
          End Site
          {
            OFFSET 0 -0.0007 9.2781
          }
        }
      }
    }
  }
  JOINT RightUpLeg
  {
    OFFSET -8.2078 -6.7517 -1.5996
    CHANNELS 6 Xposition Yposition Zposition Zrotation Xrotation Yrotation
    JOINT RightLeg
    {
      OFFSET 0 -44.3705 0.2862
      CHANNELS 6 Xposition Yposition Zposition Zrotation Xrotation Yrotation
      JOINT RightFoot
      {
        OFFSET 0 -44.4277 -2.9838
        CHANNELS 6 Xposition Yposition Zposition Zrotation Xrotation Yrotation
        JOINT RightToeBase
        {
          OFFSET 0 -8.7287 10.7106
          CHANNELS 6 Xposition Yposition Zposition Zrotation Xrotation Yrotation
          End Site
          {
            OFFSET 0 -0.0007 9.2781
          }
        }
      }
    }
  }
}
MOTION
Frames:	4
Frame Time:	0.0333333
-1.61988 95.8224 3.98903 0.208486 0.685627 -29.7469 2.22045e-016 10.1816 0.1315 -4.87117 6.84802 15.6133 0 10.0835 -1.0008 -1.44496 2.82634 5.98576 -8.88178e-016 9.1 -1.3734 -1.44963 2.79066 6.00106 0 16.6717 -2.5162 0.206523 7.20992 -1.57618 0 9.6179 1.685 3.74396 12.4931 -4.57325 0 17.8152 2.585 1.59028e-015 -3.18055e-015 -1.59028e-015 3.0676 6.4095 9.2836 1.59028e-015 -3.18055e-015 -1.59028e-015 -3.0676 6.4095 9.2835 1.59028e-015 -3.18055e-015 -1.59028e-015 4.5704 10.946 -2.628 -3.88898 0.26165 2.00403 10.5924 -0.5246 -2.2321 -42.3349 13.3624 -28.2685 27.8415 -0.0001 8.88178e-016 -0.000198364 1.81023e-012 -119.545 28.3288 0 0 11.4539 -7.02185 -17.4244 2.4661 -1.575 2.6824 1.8797 5.14177 7.82184 3.2298 -1.8647 1.8647 -12.9692 0.640437 37.8061 2.6526 -1.5315 1.5315 1.30691 21.0356 66.6022 9.1093 -0.5171 2.2601 -85.2259 -6.32939 8.24873 3.6764 0 0 -118.295 -10.1553 6.07659 2.8831 1.42109e-014 -3.55271e-015 -107.207 -8.93737 6.59451 9.5334 0 7.10543e-015 -86.4925 -6.48336 6.89196 3.6982 0 -7.10543e-015 -110.505 -9.31022 6.46555 2.9509 1.42109e-014 -3.55271e-015 -108.772 -9.11534 6.53599 9.1045 -0.0439 -1.8651 -89.4465 -6.8237 3.14587 3.154 0 7.10543e-015 -107.012 -8.91518 6.60143 2.9377 0 7.10543e-015 -103.174 -8.47189 6.72237 8.0778 -0.4887 -3.8061 -94.0369 -7.35161 0.60885 3.6 0 7.10543e-015 -99.0676 -3.93024 7.45322 2.1142 -1.42109e-014 0 -123.632 -10.6991 5.74482 -4.57 10.9462 -2.628 -0.558232 1.68927 6.43166 -10.5928 -0.5248 -2.2321 62.827 -9.1808 39.5384 -27.8415 1.42109e-014 0 -5.44582e-012 3.07842e-015 116.023 -28.3288 -1.42109e-014 0.0001 -13.2569 -24.9955 18.6746 -8.0767 -0.4885 -3.806 94.5432 -7.40981 3.44802 -3.6 0 0.0001 98.6067 -8.01069 -6.89398 -2.1142 7.10543e-015 -7.10543e-015 123.615 -10.8017 -5.80223 -9.1036 -0.0439 -1.8651 91.9575 -7.18056 -1.66028 -3.154 0 1.42109e-014 100.92 -8.28822 -6.84578 -2.9377 0 7.10543e-015 103.158 -8.54543 -6.78862 -9.5325 0 -7.10543e-015 86.4935 -6.54705 -6.94915 -3.6982 2.84217e-014 7.10543e-015 110.471 -9.3974 -6.53035 -2.9509 1.42109e-014 7.10543e-015 108.755 -9.1945 -6.60262 -9.1083 -0.5168 2.2601 85.0052 -6.35658 -10.0477 -3.6764 2.84217e-014 1.42109e-014 118.278 -10.2526 -6.13712 -2.8831 0 -7.10543e-015 107.189 -9.02275 -6.65977 -2.4648 -1.5727 2.6826 3.57269 1.45283 -10.183 -3.2298 -1.8647 1.8647 6.36 22.0303 -33.2844 -2.6526 -1.5314 1.5314 11.7584 20.5194 -59.1358 8.2078 -6.7517 -1.5996 6.43088 -34.593 -0.498705 -3.55271e-015 -44.3705 0.2846 2.22162 34.6873 -4.73273 0 -44.4279 -2.9822 -8.31001 -1.36166 0.334016 3.55271e-015 -8.7287 10.7106 1.9107e-006 -6.77978e-006 -5.71268e-006 -8.2078 -6.7517 -1.5996 -7.02431 5.17862 -18.6535 -3.55271e-015 -44.3705 0.2862 -0.44211 26.7421 -6.94675 -7.10543e-015 -44.4277 -2.9838 14.253 -28.1041 3.19347 -3.55271e-015 -8.7287 10.7106 -2.14382e-007 -0.775152 -9.81067e-006 
-1.08706 95.8144 3.75686 0.990466 0.729435 -35.8056 2.22045e-016 10.1816 0.1315 -5.08865 6.64159 17.0759 0 10.0835 -1.0008 -1.34391 2.7815 6.54746 0 9.1 -1.3734 -1.34863 2.72571 6.5694 -8.88178e-016 16.6717 -2.5162 -0.0908151 6.80325 -1.2612 0 9.6179 1.685 2.20731 12.6404 -2.96578 8.88178e-016 17.8152 2.585 7.95139e-016 0 -0 3.0676 6.4095 9.2836 7.95139e-016 0 -0 -3.0676 6.4095 9.2835 7.95139e-016 0 -0 4.5704 10.946 -2.628 -4.16671 0.261243 2.03882 10.5924 -0.5246 -2.2321 -37.7563 12.4258 -26.5915 27.8415 -0.0001 -1.77636e-015 -0.000198364 -2.9292e-014 -120.388 28.3288 0 1.42109e-014 11.0126 -2.33741 -15.2922 2.4661 -1.575 2.6824 1.8797 5.14177 7.82184 3.2298 -1.8647 1.8647 -12.9692 0.640437 37.8061 2.6526 -1.5315 1.5315 1.30691 21.0356 66.6022 9.1093 -0.5171 2.2601 -85.2259 -6.32939 8.24873 3.6764 -1.42109e-014 -1.42109e-014 -118.295 -10.1553 6.07659 2.8831 0 3.55271e-015 -107.207 -8.93737 6.59451 9.5334 0 -7.10543e-015 -86.4925 -6.48336 6.89196 3.6982 0 0 -110.505 -9.31022 6.46555 2.9509 -1.42109e-014 0 -108.772 -9.11534 6.53599 9.1045 -0.0439 -1.8651 -89.4465 -6.8237 3.14587 3.154 1.42109e-014 -1.42109e-014 -107.012 -8.91518 6.60143 2.9377 0 -3.55271e-015 -103.174 -8.47189 6.72237 8.0778 -0.4887 -3.8061 -94.0369 -7.35161 0.60885 3.6 0 -7.10543e-015 -99.0676 -3.93024 7.45322 2.1142 -1.42109e-014 0 -123.632 -10.6991 5.74482 -4.57 10.9462 -2.628 -0.315222 1.65066 6.00539 -10.5928 -0.5248 -2.2321 65.0756 -7.8673 40.8639 -27.8415 1.42109e-014 -7.10543e-015 4.9406e-006 -1.66476e-005 123.059 -28.3288 -1.42109e-014 0.0001 -13.5241 -25.1927 18.6148 -8.0767 -0.4885 -3.806 94.5432 -7.40981 3.44802 -3.6 0 0.0001 98.6067 -8.01069 -6.89398 -2.1142 0 -3.55271e-015 123.615 -10.8017 -5.80223 -9.1036 -0.0439 -1.8651 91.9575 -7.18056 -1.66028 -3.154 2.84217e-014 -7.10543e-015 100.92 -8.28822 -6.84578 -2.9377 -7.10543e-015 3.55271e-015 103.158 -8.54543 -6.78862 -9.5325 0 7.10543e-015 86.4935 -6.54705 -6.94915 -3.6982 0 -3.55271e-015 110.471 -9.3974 -6.53035 -2.9509 1.42109e-014 0 108.755 -9.1945 -6.60262 -9.1083 -0.5168 2.2601 85.0052 -6.35658 -10.0477 -3.6764 0 -3.55271e-015 118.278 -10.2526 -6.13712 -2.8831 0 0 107.189 -9.02275 -6.65977 -2.4648 -1.5727 2.6826 3.57269 1.45283 -10.183 -3.2298 -1.8647 1.8647 6.36 22.0303 -33.2844 -2.6526 -1.5314 1.5314 11.7584 20.5194 -59.1358 8.2078 -6.7517 -1.5996 9.3723 -34.1827 5.25807 0 -44.3705 0.2846 1.39856 35.0712 -2.37534 3.55271e-015 -44.4279 -2.9822 -7.96229 -1.65108 0.312986 0 -8.7287 10.7106 -3.18179e-006 -4.40239e-005 -2.87615e-006 -8.2078 -6.7517 -1.5996 -9.78836 2.09029 -16.9133 0 -44.3705 0.2862 -0.349343 29.1696 -2.77738 3.55271e-015 -44.4277 -2.9838 13.2864 -28.4165 2.96579 0 -8.7287 10.7106 -6.82927e-007 -0.746651 -1.6362e-005 
-0.648991 96.0772 3.56742 2.00439 1.01548 -44.7624 0 10.1816 0.1315 -5.75595 6.06175 18.0534 -4.44089e-016 10.0835 -1.0008 -1.51666 2.58158 6.92662 0 9.1 -1.3734 -1.52312 2.5139 6.94939 0 16.6717 -2.5162 -0.519339 6.00625 -0.513377 -8.88178e-016 9.6179 1.685 -1.32822 11.8782 1.25881 1.77636e-015 17.8152 2.585 0 6.36111e-015 -0 3.0676 6.4095 9.2836 0 6.36111e-015 -0 -3.0676 6.4095 9.2835 0 6.36111e-015 -0 4.5704 10.946 -2.628 -4.10404 0.139725 2.71749 10.5924 -0.5246 -2.2321 -30.1699 8.03607 -23.3847 27.8415 -0.0001 0 -0.000228882 -5.58098e-012 -120.727 28.3288 0 -1.42109e-014 9.052 -1.92075 -11.0972 2.4661 -1.575 2.6824 1.8797 5.14177 7.82184 3.2298 -1.8647 1.8647 -12.9692 0.640437 37.8061 2.6526 -1.5315 1.5315 1.30691 21.0356 66.6022 9.1093 -0.5171 2.2601 -85.2259 -6.32939 8.24873 3.6764 0 7.10543e-015 -118.295 -10.1553 6.07659 2.8831 0 -3.55271e-015 -107.207 -8.93737 6.59451 9.5334 1.42109e-014 1.42109e-014 -86.4925 -6.48336 6.89196 3.6982 0 0 -110.505 -9.31022 6.46555 2.9509 1.42109e-014 3.55271e-015 -108.772 -9.11534 6.53599 9.1045 -0.0439 -1.8651 -89.4465 -6.8237 3.14587 3.154 0 0 -107.012 -8.91518 6.60143 2.9377 0 -3.55271e-015 -103.174 -8.47189 6.72237 8.0778 -0.4887 -3.8061 -94.0369 -7.35161 0.60885 3.6 0 1.42109e-014 -99.0676 -3.93024 7.45322 2.1142 1.42109e-014 -1.42109e-014 -123.632 -10.6991 5.74482 -4.57 10.9462 -2.628 -0.439782 1.58715 5.74366 -10.5928 -0.5248 -2.2321 63.8883 -3.50947 44.6598 -27.8415 -1.42109e-014 0 -1.79767e-005 8.69226e-006 124.726 -28.3288 0 0.0001 -17.0158 -22.763 17.3122 -8.0767 -0.4885 -3.806 94.5432 -7.40981 3.44802 -3.6 0 0.0001 98.6067 -8.01069 -6.89398 -2.1142 7.10543e-015 0 123.615 -10.8017 -5.80223 -9.1036 -0.0439 -1.8651 91.9575 -7.18056 -1.66028 -3.154 2.84217e-014 0 100.92 -8.28822 -6.84578 -2.9377 0 3.55271e-015 103.158 -8.54543 -6.78862 -9.5325 0 3.55271e-015 86.4935 -6.54705 -6.94915 -3.6982 0 3.55271e-015 110.471 -9.3974 -6.53035 -2.9509 0 0 108.755 -9.1945 -6.60262 -9.1083 -0.5168 2.2601 85.0052 -6.35658 -10.0477 -3.6764 0 3.55271e-015 118.278 -10.2526 -6.13712 -2.8831 -1.42109e-014 -1.77636e-015 107.189 -9.02275 -6.65977 -2.4648 -1.5727 2.6826 3.57269 1.45283 -10.183 -3.2298 -1.8647 1.8647 6.36 22.0303 -33.2844 -2.6526 -1.5314 1.5314 11.7584 20.5194 -59.1358 8.2078 -6.7517 -1.5996 13.1136 -32.7378 10.4839 0 -44.3705 0.2846 0.127397 34.8211 3.05 0 -44.4279 -2.9822 -8.57028 -2.03421 0.309196 0 -8.7287 10.7106 2.48095e-006 -9.88465e-006 -5.76841e-006 -8.2078 -6.7517 -1.5996 -11.7078 -2.10535 -14.4237 0 -44.3705 0.2862 -1.88901 30.408 3.40101 -7.10543e-015 -44.4277 -2.9838 12.3911 -27.7487 2.63029 0 -8.7287 10.7106 -3.36201e-006 -0.640527 1.74704e-006 
-0.275422 96.3597 3.26975 2.26499 1.41052 -53.5493 0 10.1816 0.1315 -6.12117 5.74585 17.3443 0 10.0835 -1.0008 -1.75749 2.47792 6.65631 -8.88178e-016 9.1 -1.3734 -1.76112 2.42209 6.67515 8.88178e-016 16.6717 -2.5162 -1.17751 5.24501 0.600659 0 9.6179 1.685 -5.56913 9.4434 7.00245 0 17.8152 2.585 -1.59028e-015 -6.36111e-015 1.59028e-015 3.0676 6.4095 9.2836 -1.59028e-015 -6.36111e-015 1.59028e-015 -3.0676 6.4095 9.2835 -1.59028e-015 -6.36111e-015 1.59028e-015 4.5704 10.946 -2.628 -2.84134 -0.115317 4.23092 10.5924 -0.5246 -2.2321 -22.0481 0.618926 -23.18 27.8415 -0.0001 7.10543e-015 -0.000212381 6.0297e-006 -113.276 28.3288 0 -3.55271e-015 8.43127 -1.10043 -5.84284 2.4661 -1.575 2.6824 1.8797 5.14177 7.82184 3.2298 -1.8647 1.8647 -12.9692 0.640437 37.8061 2.6526 -1.5315 1.5315 1.30691 21.0356 66.6022 9.1093 -0.5171 2.2601 -85.2259 -6.32939 8.24873 3.6764 0 0 -118.295 -10.1553 6.07659 2.8831 0 -1.42109e-014 -107.207 -8.93737 6.59451 9.5334 0 3.55271e-015 -86.4925 -6.48336 6.89196 3.6982 7.10543e-015 7.10543e-015 -110.505 -9.31022 6.46555 2.9509 0 0 -108.772 -9.11534 6.53599 9.1045 -0.0439 -1.8651 -89.4465 -6.8237 3.14587 3.154 0 -7.10543e-015 -107.012 -8.91518 6.60143 2.9377 0 7.10543e-015 -103.174 -8.47189 6.72237 8.0778 -0.4887 -3.8061 -94.0369 -7.35161 0.60885 3.6 -7.10543e-015 -7.10543e-015 -99.0676 -3.93024 7.45322 2.1142 0 7.10543e-015 -123.632 -10.6991 5.74482 -4.57 10.9462 -2.628 -0.980283 1.46215 5.44543 -10.5928 -0.5248 -2.2321 59.5992 1.47019 48.4806 -27.8415 -1.42109e-014 7.10543e-015 1.27546e-005 8.37564e-006 123.292 -28.3288 0 0.0001 -22.0066 -22.7734 15.1956 -8.0767 -0.4885 -3.806 94.5432 -7.40981 3.44802 -3.6 -2.84217e-014 0.0001 98.6067 -8.01069 -6.89398 -2.1142 7.10543e-015 -3.55271e-015 123.615 -10.8017 -5.80223 -9.1036 -0.0439 -1.8651 91.9575 -7.18056 -1.66028 -3.154 -2.84217e-014 0 100.92 -8.28822 -6.84578 -2.9377 0 -3.55271e-015 103.158 -8.54543 -6.78862 -9.5325 3.55271e-015 0 86.4935 -6.54705 -6.94915 -3.6982 2.84217e-014 1.06581e-014 110.471 -9.3974 -6.53035 -2.9509 0 -3.55271e-015 108.755 -9.1945 -6.60262 -9.1083 -0.5168 2.2601 85.0052 -6.35658 -10.0477 -3.6764 0 -1.06581e-014 118.278 -10.2526 -6.13712 -2.8831 -1.42109e-014 -3.55271e-015 107.189 -9.02275 -6.65977 -2.4648 -1.5727 2.6826 3.57269 1.45283 -10.183 -3.2298 -1.8647 1.8647 6.36 22.0303 -33.2844 -2.6526 -1.5314 1.5314 11.7584 20.5194 -59.1358 8.2078 -6.7517 -1.5996 16.7184 -30.6277 12.4927 -3.55271e-015 -44.3705 0.2846 -1.71692 34.6301 9.98509 0 -44.4279 -2.9822 -9.91888 -2.50564 0.701418 0 -8.7287 10.7106 -5.95154e-006 -6.3065e-006 5.74556e-006 -8.2078 -6.7517 -1.5996 -11.4284 -5.74747 -11.6718 0 -44.3705 0.2862 -4.6242 30.5868 9.45421 0 -44.4277 -2.9838 12.0786 -26.6551 2.41641 3.55271e-015 -8.7287 10.7106 3.82705e-006 -0.577564 -1.00625e-005 
